<?xml version="1.0" standalone="no"?><!DOCTYPE svg PUBLIC "-//W3C//DTD SVG 1.1//EN" "http://www.w3.org/Graphics/SVG/1.1/DTD/svg11.dtd"><svg t="1494990006309" class="icon" style="" viewBox="0 0 1024 1024" version="1.1" xmlns="http://www.w3.org/2000/svg" p-id="2491" xmlns:xlink="http://www.w3.org/1999/xlink" width="200" height="200"><defs><style type="text/css"></style></defs><path d="M663.271897 715.730364c0 0-27.41095 33.502272-68.539558 0s-182.739667-191.145692-182.739667-191.145692-33.502272-40.373284-71.585219 0-155.328717 213.975968-155.328717 213.975968-36.547933 62.448236-89.859186 0C49.33971 684.762082 10.282152 707.811645 0.316749 715.218693l0 235.68544c0 40.373284 32.722583 73.095867 73.095867 73.095867l877.150403 0c40.373284 0 73.095867-32.722583 73.095867-73.095867L1023.658886 306.90518c-2.777643 0.511671-5.677112 1.632474-8.625312 3.143122L663.271897 715.730364zM127.722845 627.406191c47.098104 0 85.278511-38.180408 85.278511-85.278511 0-12.085183-2.582721-23.536869-7.114664-33.940848l149.505413-184.64016c8.43039 2.802008 17.27499 4.678135 26.655626 4.678135 12.791777 0 24.828229-3.021296 35.695148-8.064911l130.768506 130.768506c-2.777643 8.406025-4.629405 17.226259-4.629405 26.5338 0 47.098104 38.156043 85.278511 85.278511 85.278511 47.098104 0 85.278511-38.180408 85.278511-85.278511 0-10.50144-2.168511-20.442477-5.628382-29.725653l203.742546-238.146334c8.186737 2.607086 16.763319 4.410117 25.851572 4.410117 47.098104 0 85.278511-38.180408 85.278511-85.278511s-38.180408-85.278511-85.278511-85.278511c-47.122469 0-85.278511 38.180408-85.278511 85.278511 0 10.940015 2.241607 21.295263 5.993861 30.895186l-203.060318 237.317915c-8.503486-2.850739-17.445547-4.751231-26.899279-4.751231-10.671997 0-20.807957 2.192876-30.212958 5.774573l-134.398934-134.398934c1.65684-6.627359 2.802008-13.474005 2.802008-20.613034 0-47.098104-38.180408-85.278511-85.278511-85.278511s-85.278511 38.180408-85.278511 85.278511c0 10.55017 2.168511 20.515573 5.652747 29.847479l-151.868846 187.539629c-7.309587-2.046684-14.862826-3.484236-22.854641-3.484236-47.098104 0-85.278511 38.180408-85.278511 85.278511S80.624741 627.406191 127.722845 627.406191z" p-id="2492" fill="#78829D"></path></svg>