<?xml version="1.0" standalone="no"?><!DOCTYPE svg PUBLIC "-//W3C//DTD SVG 1.1//EN" "http://www.w3.org/Graphics/SVG/1.1/DTD/svg11.dtd"><svg t="1494990062399" class="icon" style="" viewBox="0 0 1024 1024" version="1.1" xmlns="http://www.w3.org/2000/svg" p-id="3266" xmlns:xlink="http://www.w3.org/1999/xlink" width="200" height="200"><defs><style type="text/css"></style></defs><path d="M63.988872 831.556013l895.392924 0 0 61.398372-895.392924 0 0-61.398372Z" p-id="3267" fill="#78829D"></path><path d="M63.988872 622.801549l59.35176 0 0 270.152836-59.35176 0 0-270.152836Z" p-id="3268" fill="#78829D"></path><path d="M900.030036 622.801549l59.35176 0 0 239.45365-59.35176 0 0-239.45365Z" p-id="3269" fill="#78829D"></path><path d="M947.221848 584.939219 641.133567 584.939219 641.133567 527.634072 881.702622 527.634072 835.680449 185.849802 187.542862 185.849802 141.520689 527.634072 352.561219 527.634072 352.561219 584.939219 76.002486 584.939219 137.409045 127.521349 885.815289 127.521349Z" p-id="3270" fill="#78829D"></path><path d="M496.261039 744.285391c-109.971647 0-202.907293-73.388451-202.907293-187.998745l57.294914 0c0 86.981027 68.036559 130.701784 145.612379 130.701784 76.236312 0 145.616472-73.396637 145.616472-130.701784l57.293891 0C699.171402 643.267673 604.362083 744.285391 496.261039 744.285391z" p-id="3271" fill="#78829D"></path></svg>