<?xml version="1.0" standalone="no"?><!DOCTYPE svg PUBLIC "-//W3C//DTD SVG 1.1//EN" "http://www.w3.org/Graphics/SVG/1.1/DTD/svg11.dtd"><svg t="1494990110792" class="icon" style="" viewBox="0 0 1024 1024" version="1.1" xmlns="http://www.w3.org/2000/svg" p-id="5130" xmlns:xlink="http://www.w3.org/1999/xlink" width="200" height="200"><defs><style type="text/css"></style></defs><path d="M519.444 422.674c-29.775-22.332-48.385-18.61-74.439 11.166-22.332 26.053-44.664 48.385-78.161 55.83-29.775 7.444-55.83 0-81.883-18.61-18.61-14.888-22.332-33.498-11.166-52.107 11.166-22.332 22.332-40.941 29.775-63.273 14.888-26.053 3.722-44.664-22.332-44.664-18.61 0-22.332 14.888-26.053 26.053-14.888 37.219-81.883 200.985-100.492 245.649-11.166 29.775 14.888 40.941 33.498 55.83 7.444 7.444 14.888 7.444 26.053 0 26.053-29.775 59.551-29.775 85.605 3.722 3.722 3.722 7.444 7.444 11.166 3.722 33.498-7.444 52.107 11.166 66.995 37.219 0 3.722 7.444 7.444 11.166 7.444 40.941-3.722 66.995 18.61 70.717 59.551 3.722 14.888 7.444 18.61 18.61 22.332 29.775 11.166 44.664 37.219 37.219 70.717-3.722 11.166-7.444 18.61-7.444 29.775-3.722 14.888 0 22.332 14.888 22.332 14.888 3.722 26.053 0 37.219-11.166 11.166-7.444 11.166-11.166 0-18.61-7.444-7.444-14.888-11.166-26.053-18.61-3.722 0-3.722-3.722-3.722-7.444 0 0 3.722-3.722 3.722-3.722 3.722 3.722 7.444 3.722 11.166 7.444 11.166 7.444 22.332 14.888 33.498 22.332 29.775 18.61 74.439 0 81.883-33.498 3.722-11.166 0-14.888-7.444-22.332-18.61-14.888-37.219-26.053-52.107-40.941-3.722-3.722-3.722-7.444-3.722-11.166 3.722 0 7.444 0 11.166 0 18.61 14.888 37.219 29.775 55.83 44.664 29.775 26.053 52.107 29.775 78.161 7.444 14.888-11.166 18.61-26.053 18.61-40.941 0-11.166-11.166-14.888-14.888-22.332-3.722-3.722-11.166-7.444-14.888-11.166-29.775-22.332-59.551-44.664-85.605-66.995-7.444-3.722-11.166-11.166-3.722-14.888 3.722-3.722 11.166 0 14.888 3.722 22.332 14.888 40.941 33.498 63.273 48.385 14.888 11.166 26.053 22.332 40.941 29.775 18.61 11.166 40.941 7.444 55.83-7.444 18.61-14.888 22.332-40.941 14.888-63.273-18.61-22.332-37.219-44.664-312.643-241.926v0zM835.809 493.39c-18.61-59.551-37.219-119.102-59.551-174.932-3.722-7.444-11.166-18.61-18.61-18.61-78.161-29.775-245.649-89.326-249.37-89.326-3.722 0-89.326 22.332-133.99 37.219-22.332 0-33.498 11.166-33.498 33.498 0 37.219 3.722 89.326-18.61 119.102-3.722 3.722-3.722 7.444-7.444 14.888-7.444 14.888-3.722 29.775 11.166 37.219 7.444 3.722 22.332 7.444 29.775 3.722 14.888-3.722 26.053-11.166 40.941-14.888 22.332-11.166 37.219-29.775 40.941-55.83 0-14.888 18.61-14.888 26.053-18.61 26.053-7.444 44.664-3.722 66.995 11.166 18.61 14.888 37.219 26.053 52.107 40.941 63.273 48.385 126.547 96.77 193.541 145.156 14.888 11.166 33.498 22.332 48.385 33.498 11.166 7.444 22.332 7.444 29.775-3.722 7.444-7.444 11.166-18.61 7.444-29.775-7.444-22.332-14.888-48.385-26.053-70.717v0zM508.278 203.078c0 0 0 0 0 0s0 0 0 0v0zM229.132 299.849c3.722-3.722-3.722-7.444-11.166-11.166-26.053-11.166-48.385-22.332-74.439-33.498-7.444-3.722-14.888 0-22.332 7.444 18.61-40.941-59.551 137.711-111.658 271.702-3.722 11.166 0 14.888 7.444 18.61 26.053 11.166 48.385 22.332 74.439 29.775 11.166 3.722 18.61 0 22.332-11.166 7.444-22.332 18.61-44.664 26.053-66.995 29.775-59.551 55.83-122.824 81.883-186.098 3.722-3.722 7.444-11.166 7.444-18.61v0zM1010.741 541.775c0-3.722-3.722-7.444-3.722-11.166-14.888-40.941-29.775-85.605-40.941-126.547-14.888-40.941-29.775-85.605-40.941-130.268-3.722-18.61-7.444-18.61-26.053-14.888-22.332 7.444-40.941 14.888-63.273 22.332-22.332 7.444-22.332 11.166-14.888 33.498 18.61 55.83 37.219 107.936 52.107 163.766 11.166 29.775 18.61 59.551 29.775 89.326 3.722 7.444 7.444 14.888 18.61 11.166 26.053-7.444 55.83-18.61 81.883-26.053 7.444-3.722 7.444-3.722 7.444-11.166v0zM430.117 809.756c-3.722 0-3.722 0-7.444 3.722 22.332-66.995-22.332-100.492-70.717-74.439 3.722-18.61-3.722-37.219-18.61-48.385-14.888-11.166-33.498-11.166-52.107 0-7.444-26.053-22.332-40.941-40.941-37.219-18.61 0-33.498 26.053-29.775 52.107 3.722 18.61 18.61 29.775 48.385 26.053 3.722 59.551 22.332 70.717 74.439 52.107-3.722 22.332-3.722 44.664 14.888 59.551 22.332 14.888 40.941 11.166 63.273-7.444 0 7.444-3.722 14.888-3.722 22.332 0 18.61 7.444 29.775 22.332 37.219 11.166 3.722 29.775 3.722 37.219-11.166 7.444-11.166 11.166-22.332 14.888-37.219 3.722-29.775-22.332-52.107-52.107-37.219v0zM430.117 809.756z" p-id="5131" fill="#78829D"></path></svg>