<?xml version="1.0" standalone="no"?><!DOCTYPE svg PUBLIC "-//W3C//DTD SVG 1.1//EN" "http://www.w3.org/Graphics/SVG/1.1/DTD/svg11.dtd"><svg t="1495084658406" class="icon" style="" viewBox="0 0 1024 1024" version="1.1" xmlns="http://www.w3.org/2000/svg" p-id="1023" xmlns:xlink="http://www.w3.org/1999/xlink" width="200" height="200"><defs><style type="text/css"></style></defs><path d="M746.770899 395.966287c-29.961586-110.432135-125.559698-220.12135-251.251409-220.12135-146.023591 0-250.923937 101.875249-260.969123 264.131703-91.440249 0-170.777359 65.874313-170.777359 167.728072 0 101.876272 81.963022 240.453421 168.08493 240.453421l560.2831 0c106.432299-2.013867 168.08493-152.321174 168.08493-268.24744C960.225968 462.671525 902.884702 357.448018 746.770899 395.966287L746.770899 395.966287zM678.59647 578.11479 519.550774 733.018789c-1.969945 1.90335-4.63986 3.086291-7.551286 3.086291-2.888912 0-5.580317-1.181919-7.550262-3.086291L345.402507 578.11479c-1.050979-1.028423-1.488972-2.735297-0.94148-4.267187 0.612986-1.487887 1.969945-2.451842 3.436403-2.451842l102.864907 0-0.196483-159.805636c0-2.976798 1.072469-5.952572 3.217407-8.229428 2.188942-2.275833 5.033849-3.413749 7.878757-3.413749l100.74146 0c2.779414 0 5.624321 1.137916 7.813263 3.413749s3.238897 5.252631 3.238897 8.229428l-0.218996 159.805636 102.864907 0c1.467481 0 2.823417 0.962931 3.436403 2.451842C680.084418 575.380516 679.646425 577.087391 678.59647 578.11479L678.59647 578.11479zM678.59647 578.11479" p-id="1024" fill="#8a8a8a"></path></svg>