<?xml version="1.0" standalone="no"?><!DOCTYPE svg PUBLIC "-//W3C//DTD SVG 1.1//EN" "http://www.w3.org/Graphics/SVG/1.1/DTD/svg11.dtd"><svg t="1495084705444" class="icon" style="" viewBox="0 0 1280 1024" version="1.1" xmlns="http://www.w3.org/2000/svg" p-id="2309" xmlns:xlink="http://www.w3.org/1999/xlink" width="250" height="200"><defs><style type="text/css"></style></defs><path d="M974.592 334.848c-42.666667-167.509333-178.858667-333.994667-357.888-333.994667-207.957333 0-357.376 154.538667-371.626667 400.725334-130.218667 0-243.2 99.925333-243.2 254.464 0 154.538667 116.736 364.714667 239.36 364.714666h797.952c151.552-3.072 239.445333-231.082667 239.445334-406.954666-0.085333-177.749333-81.749333-337.408-304.042667-278.954667m-95.829333 252.16c-0.853333 2.218667-2.730667 3.754667-4.864 3.754667h-146.517334l0.341334 242.432a18.261333 18.261333 0 0 1-4.693334 12.458666 15.104 15.104 0 0 1-11.093333 5.205334h-143.530667a15.189333 15.189333 0 0 1-11.178666-5.205334 18.773333 18.773333 0 0 1-4.608-12.458666l0.341333-242.432H406.528c-2.133333 0-4.096-1.536-4.949333-3.754667a6.741333 6.741333 0 0 1 1.365333-6.4l226.474667-235.008c2.816-2.901333 6.656-4.693333 10.752-4.693333s7.936 1.792 10.666666 4.693333l226.56 235.008a5.973333 5.973333 0 0 1 1.365334 6.4m0 0z" fill="#8a8a8a" p-id="2310"></path></svg>