<?xml version="1.0" standalone="no"?><!DOCTYPE svg PUBLIC "-//W3C//DTD SVG 1.1//EN" "http://www.w3.org/Graphics/SVG/1.1/DTD/svg11.dtd"><svg t="1495097199947" class="icon" style="" viewBox="0 0 1024 1024" version="1.1" xmlns="http://www.w3.org/2000/svg" p-id="1195" xmlns:xlink="http://www.w3.org/1999/xlink" width="200" height="200"><defs><style type="text/css"></style></defs><path d="M901.519953 153.623835 124.507768 153.623835c-33.124941 0-59.954751 26.829809-59.954751 59.954751l0 599.546507c0 33.096361 26.829809 59.954151 59.954751 59.954151l777.012186 0c33.124342 0 59.954151-26.85779 59.954151-59.954151L961.474105 213.578386C961.474105 180.453445 934.644295 153.623835 901.519953 153.623835zM499.823304 663.265898 188.05948 663.265898 188.05948 363.464963l311.763824 0L499.823304 663.265898zM833.171494 663.237917 559.778454 663.237917l0-59.954151 273.39304 0L833.171494 663.237917zM833.171494 543.328615 559.778454 543.328615l0-59.954151 273.39304 0L833.171494 543.328615zM833.171494 423.419713 559.778454 423.419713l0-59.954751 273.39304 0L833.171494 423.419713z" p-id="1196" fill="#515151"></path></svg>