<?xml version="1.0" standalone="no"?><!DOCTYPE svg PUBLIC "-//W3C//DTD SVG 1.1//EN" "http://www.w3.org/Graphics/SVG/1.1/DTD/svg11.dtd"><svg t="1495097277137" class="icon" style="" viewBox="0 0 1024 1024" version="1.1" xmlns="http://www.w3.org/2000/svg" p-id="2902" xmlns:xlink="http://www.w3.org/1999/xlink" width="200" height="200"><defs><style type="text/css"></style></defs><path d="M320 384h128v192h-128v64h384v-64h-128V384h128V320h-384V384zM537.6512 0H486.3488C373.6064 79.4112 226.048 128 64 128v288C64 696.32 253.952 953.7024 512 1024c258.048-70.2976 448-327.68 448-608V128c-162.048 0-309.6064-48.5888-422.3488-128z m294.3488 446.8224c0 214.8864-135.68 395.264-320 449.1776-184.32-53.9136-320-234.2912-320-449.1776V226.0992c115.7632 0 221.1328-37.2224 301.6704-98.0992h36.6592c80.5376 60.8768 185.9072 98.0992 301.6704 98.0992v220.7232z" fill="#515151" p-id="2903"></path></svg>