<?xml version="1.0" standalone="no"?><!DOCTYPE svg PUBLIC "-//W3C//DTD SVG 1.1//EN" "http://www.w3.org/Graphics/SVG/1.1/DTD/svg11.dtd"><svg t="1495100972428" class="icon" style="" viewBox="0 0 1024 1024" version="1.1" xmlns="http://www.w3.org/2000/svg" p-id="1016" xmlns:xlink="http://www.w3.org/1999/xlink" width="200" height="200"><defs><style type="text/css"></style></defs><path d="M838.948864 513.142784c-52.39808-11.570176-110.216192-17.294336-133.249024-48.710656-4.247552-5.587968-5.039104-21.322752-5.039104-33.416192 0-4.615168 1.887232-8.989696 5.287936-11.967488 33.230848-29.584384 55.891968-81.594368 56.435712-131.5328 0.976896-97.999872-13.48096-179.59424-116.222976-179.59424-62.149632 0-91.433984 31.348736-104.799232 78.74048 9.478144 5.94944 18.409472 12.880896 26.366976 21.141504 23.996416 24.242176 39.795712 56.439808 48.423936 98.72384 5.894144 29.408256 8.75008 64.03584 8.201216 109.545472-0.488448 34.384896-8.080384 69.746688-21.992448 102.677504-11.483136 26.548224-26.307584 50.245632-44.17024 69.804032 3.46112 2.010112 8.441856 4.258816 15.491072 6.746112 17.0752 5.95456 38.518784 10.4448 61.425664 14.943232 58.384384 11.849728 124.669952 25.032704 160.940032 76.736512 9.112576 13.182976 17.19296 28.859392 23.996416 47.811584l23.252992 0c11.213824 0 25.414656-10.226688 25.414656-28.20096L868.712448 554.435584C868.708352 533.610496 849.174528 515.401728 838.948864 513.142784z" p-id="1017" fill="#515151"></path><path d="M811.451392 876.64128c-2.190336-40.890368-10.5728-137.365504-42.952704-180.441088-49.640448-65.01376-199.460864-43.685888-243.267584-103.22432-4.678656-6.682624-5.523456-24.607744-5.225472-38.094848 0.063488-4.736 2.37056-9.781248 5.958656-13.06624 37.115904-33.35168 62.270464-91.795456 62.270464-149.02784 0-109.364224-16.830464-199.704576-127.342592-199.704576-113.975296 0-130.013184 91.317248-128.923648 201.283584 0.54784 56.195072 25.57952 114.282496 62.702592 147.448832 3.76832 3.528704 5.894144 8.388608 5.894144 13.4912 0 13.546496-0.790528 31.110144-5.71392 37.605376-43.255808 59.538432-197.694464 36.636672-244.481024 103.22432-30.800896 44.049408-39.424 139.677696-41.798656 180.504576-0.54784 10.2656 7.596032 18.956288 17.92512 18.956288l666.97216 0C803.673088 895.597568 811.930624 886.965248 811.451392 876.64128z" p-id="1018" fill="#515151"></path></svg>