<?xml version="1.0" standalone="no"?><!DOCTYPE svg PUBLIC "-//W3C//DTD SVG 1.1//EN" "http://www.w3.org/Graphics/SVG/1.1/DTD/svg11.dtd"><svg t="1495112166452" class="icon" style="" viewBox="0 0 1024 1024" version="1.1" xmlns="http://www.w3.org/2000/svg" p-id="1745" xmlns:xlink="http://www.w3.org/1999/xlink" width="200" height="200"><defs><style type="text/css"></style></defs><path d="M107.584 809.856c-3.072-14.784 33.728-76.416 93.696-95.872 21.824-7.36 44.288-14.08 67.456-20.16 23.168-6.016 43.456-14.72 60.928-26.176 14.08-8.704 25.024-17.088 32.704-25.152 7.744-8.064 13.12-16.128 16.128-24.192s4.544-16.448 4.544-25.152S382.72 575.04 382.016 564.992C380.672 548.864 375.488 536.384 366.4 527.68 357.376 518.976 347.136 509.888 335.68 500.48c-5.376-4.672-10.048-11.2-14.08-19.648C317.568 472.448 313.856 463.936 310.528 455.168c-3.392-10.048-6.72-20.48-10.048-31.232-4.672-1.344-9.408-3.712-14.08-7.04C282.304 413.568 277.952 408.832 273.28 402.816 268.544 396.736 264.512 388.032 261.184 376.64 257.792 365.248 256.64 355.008 257.664 345.92 258.688 336.832 260.48 328.96 263.168 322.24 265.856 314.88 269.888 307.84 275.264 301.12 274.56 275.584 275.904 250.112 279.296 224.576c2.688-21.504 7.552-44.288 14.592-68.48 7.04-24.128 17.28-45.952 30.72-65.472 12.736-18.112 27.008-33.088 42.816-44.8 15.744-11.712 31.744-20.992 47.808-27.712 16.128-6.72 32.384-11.392 48.832-14.08C480.576 1.344 496.512 0 511.936 0c19.456 0 38.08 2.368 55.872 7.04C585.6 11.776 602.24 17.792 617.664 25.152c15.424 7.424 29.184 15.616 41.28 24.64 12.096 9.088 21.824 18.304 29.184 27.712 16.768 21.504 29.376 45.184 37.76 70.976 8.384 25.856 14.272 50.176 17.6 73.024 4.032 26.88 5.696 53.696 5.056 80.576 4.672 2.688 8.384 6.72 11.072 12.096 2.688 4.736 4.864 10.752 6.528 18.112S768 348.736 766.656 359.488c-1.984 14.08-5.184 25.344-9.6 33.728-4.352 8.384-9.216 14.976-14.592 19.648-6.016 5.376-12.416 9.088-19.136 11.072-2.688 10.752-5.696 21.12-9.088 31.232-3.392 8.704-7.232 17.28-11.584 25.664s-9.216 14.976-14.592 19.648c-6.016 5.376-11.776 9.92-17.152 13.632s-10.048 7.552-14.08 11.584c-4.032 4.032-7.424 8.896-10.048 14.592-2.688 5.696-4.672 12.608-6.016 20.672C638.72 571.008 638.08 581.248 638.72 591.68c0.64 10.432 3.328 20.8 8.064 31.232 4.672 10.432 12.416 20.288 23.168 29.696 10.752 9.408 25.152 17.792 43.328 25.152 16.768 6.72 35.072 12.608 54.912 17.6 19.776 5.056 38.912 11.072 57.408 18.112 18.432 7.04 34.88 15.936 49.344 26.688 14.4 10.752 33.28 33.408 41.6 70.08-1.28 7.488 0 213.76 0 213.76L116.672 1024C116.672 1024 107.392 862.144 107.584 809.856L107.584 809.856z" p-id="1746" fill="#707070"></path></svg>