<?xml version="1.0" standalone="no"?><!DOCTYPE svg PUBLIC "-//W3C//DTD SVG 1.1//EN" "http://www.w3.org/Graphics/SVG/1.1/DTD/svg11.dtd"><svg t="1495112191512" class="icon" style="" viewBox="0 0 1024 1024" version="1.1" xmlns="http://www.w3.org/2000/svg" p-id="2488" xmlns:xlink="http://www.w3.org/1999/xlink" width="200" height="200"><defs><style type="text/css"></style></defs><path d="M914.635737 185.356008H110.877566c-55.488441 0-100.469771 44.98133-100.469772 100.468748v602.820676c0 55.487417 44.98133 100.469771 100.469772 100.469771h803.759195c55.487417 0 100.468748-44.98133 100.468747-100.469771V285.826803c0-55.487417-44.98133-100.470795-100.469771-100.470795z m50.234885 678.172493c0 41.614795-33.735998 75.351817-75.351816 75.351816H135.994497c-41.615819 0-75.35284-33.737021-75.352841-75.351816V310.943734c0-41.614795 33.737021-75.351817 75.352841-75.351816h753.523285c41.615819 0 75.351817 33.737021 75.351817 75.351816v552.584767h0.001023z" fill="#707070" p-id="2489"></path><path d="M638.343354 34.651351H387.167901c-55.487417 0-100.468748 44.98133-100.468747 100.468748v50.234885h50.233862v-25.117955c0-41.615819 33.737021-75.351817 75.35284-75.351816h200.940567c41.614795 0 75.351817 33.735998 75.351816 75.351816v25.117955l50.234886 25.117955v-75.35284c0-55.486394-44.98133-100.468748-100.469771-100.468748zM588.109492 461.648391v50.234886c0 41.615819-33.737021 75.351817-75.352841 75.351817-41.616843 0-75.351817-33.735998-75.351816-75.351817v-50.234886h-50.234886v50.234886c0 69.359016 56.227686 125.586702 125.586702 125.586702s125.586702-56.227686 125.586703-125.586702v-50.234886h-50.233862zM60.64268 411.41453H964.871646v50.233861H60.64268v-50.233861z" fill="#707070" p-id="2490"></path></svg>